<?xml version="1.0" encoding="utf-8"?>
<!-- Generator: Adobe Illustrator 23.1.0, SVG Export Plug-In . SVG Version: 6.00 Build 0)  -->
<svg version="1.1" id="Layer_1" xmlns="http://www.w3.org/2000/svg" xmlns:xlink="http://www.w3.org/1999/xlink" x="0px" y="0px"
	 viewBox="0 0 322.9 329.9" style="enable-background:new 0 0 322.9 329.9;" xml:space="preserve">
<style type="text/css">
	.st0{fill:#2E3192;stroke:#2E3192;stroke-miterlimit:10;}
	.st1{fill:#FFFFFF;stroke:#2E3192;stroke-width:19.0771;stroke-miterlimit:10;}
	.st2{fill:#2E3192;stroke:#2E3192;}
</style>
<path class="st0" d="M316.7,137.9L166.5,3.6c-0.3-0.3-0.5-0.5-0.9-0.6c-3.3-3.2-8.5-3.3-12-0.2L3.5,137.1c-3.7,3.3-3.9,8.9-0.7,12.5
	c1.8,2,4.2,3,6.6,3c2.1,0,4.2-0.7,5.9-2.2l27-24.2v156.6c0,12.3,10,22.3,22.3,22.3H112c11.6,0,20.9-9.4,20.9-21v-79.6
	c0-1.8,1.4-3.2,3.2-3.2h47.9c1.8,0,3.2,1.4,3.2,3.2v79.6c0,11.6,9.4,21,20.9,21h47.4c12.5,0,22.3-12.3,22.3-28V126.9l27,24.2
	c1.7,1.5,3.8,2.2,5.9,2.2c2.4,0,4.9-1,6.6-2.9C320.7,146.8,320.3,141.2,316.7,137.9z"/>
<path class="st0" d="M260.1,277c0,6.4-3.1,10.2-4.6,10.2h-47.4c-1.8,0-3.2-1.5-3.2-3.2v-79.5c0-11.6-9.4-20.9-20.9-20.9h-47.9
	c-11.6,0-20.9,9.4-20.9,20.9v79.6c0,1.8-1.4,3.2-3.2,3.2H64.6c-2.5,0-4.6-2-4.6-4.6V110.2l99.7-89l100.5,89.9V277z"/>
<circle class="st1" cx="242.7" cy="249.7" r="70.7"/>
<g>
	<polygon class="st2" points="233.4,293.7 233.4,258.9 203.3,258.9 203.3,240.1 233.4,240.1 233.4,205.7 251.9,205.7 251.9,240.1 
		282.1,240.1 282.1,258.9 251.9,258.9 251.9,293.7 	"/>
</g>
</svg>
