<?xml version="1.0" encoding="utf-8"?>
<!-- Generator: Adobe Illustrator 23.1.0, SVG Export Plug-In . SVG Version: 6.00 Build 0)  -->
<svg version="1.1" id="Layer_1" xmlns="http://www.w3.org/2000/svg" xmlns:xlink="http://www.w3.org/1999/xlink" x="0px" y="0px"
	 viewBox="0 0 322.9 329.9" style="enable-background:new 0 0 322.9 329.9;" xml:space="preserve">
<style type="text/css">
	.st0{fill:#FFFFFF;}
	.st1{fill:none;stroke:#FFFFFF;stroke-width:19.0771;stroke-miterlimit:10;}
</style>
<path class="st0" d="M318.6,154.9c-1.7,1.9-4.2,2.9-6.6,2.9c-2.1,0-4.2-0.7-5.9-2.2l-27-24.2v50.7c-5.5-2.7-11.4-4.8-17.6-6.1
	c-5.6-1.2-11.5-1.9-17.5-1.9c-18.3,0-35.3,6.2-48.8,16.5c-5.7,4.4-10.8,9.5-15.1,15.2h-42.8c-1.8,0-3.2,1.4-3.2,3.2v79.6
	c0,11.6-9.3,21-20.9,21H65.9c-12.3,0-22.3-10-22.3-22.3V130.6l-27,24.2c-1.7,1.5-3.8,2.2-5.9,2.2c-2.4,0-4.8-1-6.6-3
	c-3.2-3.6-3-9.2,0.7-12.5L154.9,7.2c3.5-3.1,8.7-3,12,0.2c0.4,0.1,0.6,0.3,0.9,0.6L318,142.4C321.6,145.6,322,151.2,318.6,154.9z"/>
<path class="st0" d="M261.5,115.6v60.4c-5.6-1.2-11.5-1.9-17.5-1.9c-18.3,0-35.3,6.2-48.8,16.5c-3-1.6-6.4-2.5-10-2.5h-47.9
	c-11.6,0-20.9,9.4-20.9,20.9v79.6c0,1.8-1.4,3.2-3.2,3.2H65.9c-2.5,0-4.6-2-4.6-4.6V114.6l99.7-89L261.5,115.6z"/>
<g>
	<path class="st1" d="M279.3,192.9c-5.5-3.2-11.5-5.7-17.9-7.3c-5.6-1.4-11.4-2.2-17.4-2.2c-15.5,0-29.9,5-41.5,13.5
		c-5.3,3.8-10,8.3-14,13.4c-9.5,12-15.2,27.3-15.2,43.8c0,39,31.7,70.7,70.7,70.7s70.7-31.7,70.7-70.7
		C314.7,228,300.5,205.1,279.3,192.9z"/>
	<polygon class="st0" points="283.4,263.4 253.3,263.4 253.3,291.7 234.8,291.7 234.8,263.4 204.6,263.4 204.6,244.7 234.8,244.7 
		234.8,210.2 253.3,210.2 253.3,244.7 283.4,244.7 	"/>
</g>
</svg>
