<svg width="20" height="20" viewBox="0 0 20 20" fill="none" xmlns="http://www.w3.org/2000/svg">
<path d="M19.5953 11.0575C19.603 10.9772 19.5763 10.8974 19.5223 10.8378C19.4677 10.7784 19.3909 10.7445 19.3103 10.7445H3.81962V3.64106C3.81962 2.35053 4.86979 1.30032 6.16065 1.30032C7.12129 1.30032 7.94671 1.8832 8.30673 2.72736C7.11557 3.17027 6.19561 4.46965 6.13458 5.55984C6.13269 5.58936 6.14352 5.61823 6.16378 5.63981C6.18412 5.66138 6.2127 5.67349 6.24193 5.67349H12.0606C12.0898 5.67349 12.1183 5.66105 12.1387 5.63981C12.1589 5.61823 12.1697 5.58932 12.1679 5.55984C12.1012 4.3681 11.0078 2.92863 9.65544 2.62923C9.21599 1.11268 7.81716 0 6.16065 0C4.15296 0 2.51926 1.63337 2.51926 3.64106V10.7445H0.68996C0.609333 10.7445 0.532495 10.7784 0.47851 10.8381C0.423908 10.8974 0.397224 10.9775 0.404842 11.0575C0.611845 13.2413 2.11983 15.7703 4.35037 17.4977C4.49009 17.6056 4.64245 17.6911 4.7904 17.7837L4.21827 18.3009C3.81892 18.6622 3.78779 19.2787 4.14847 19.6784C4.34086 19.8917 4.60625 20 4.8723 20C5.10599 20 5.33968 19.9168 5.52634 19.7486L6.86788 18.5368C7.09716 18.567 7.32764 18.5936 7.56124 18.5936H12.4389C12.6726 18.5936 12.903 18.567 13.1329 18.5362L14.4751 19.7486C14.6613 19.9172 14.8955 20 15.1285 20C15.3946 20 15.66 19.8914 15.8523 19.6784C16.2136 19.2787 16.1819 18.6619 15.7818 18.3009L15.2091 17.7837C15.3577 17.6911 15.5101 17.6056 15.6498 17.4977C17.8804 15.7703 19.3884 13.2414 19.5953 11.0575Z" fill="#545454"/>
</svg>
