<svg width="20" height="20" viewBox="0 0 20 20" fill="none" xmlns="http://www.w3.org/2000/svg">
<path d="M13.1799 4.71913H6.81997C5.8823 4.71913 5.11943 5.48196 5.11943 6.41963V6.72987C5.11943 6.73343 5.11899 6.73689 5.1189 6.7404H14.8809C14.8808 6.73689 14.8803 6.73343 14.8803 6.72983V6.41958C14.8804 5.48195 14.1176 4.71913 13.1799 4.71913Z" fill="#545454"/>
<path d="M4.17727 6.72988V6.41963C4.17727 4.9624 5.36281 3.7768 6.82014 3.7768H13.1801C14.6373 3.7768 15.8228 4.96235 15.8228 6.41959V6.72983C15.8228 6.73343 15.8224 6.7369 15.8223 6.74041H17.3016V3.78724C17.3016 1.96787 15.8214 0.487717 14.0021 0.487717H5.99801C4.17864 0.487717 2.69849 1.96787 2.69849 3.78724V6.74041H4.1778C4.17771 6.73694 4.17727 6.73348 4.17727 6.72988Z" fill="#545454"/>
<path d="M18.6189 7.68279H1.3811C0.619517 7.68279 0 8.30235 0 9.06388V15.9764C0 16.7379 0.619561 17.3575 1.3811 17.3575H2.01136L1.47061 18.8836C1.38367 19.1289 1.5121 19.3982 1.75736 19.4851C1.80937 19.5035 1.8625 19.5122 1.9147 19.5122C2.10865 19.5122 2.29034 19.3915 2.35879 19.1983L3.01109 17.3574H16.9891L17.6414 19.1983C17.7099 19.3916 17.8916 19.5122 18.0855 19.5122C18.1378 19.5122 18.1909 19.5035 18.2429 19.4851C18.4882 19.3982 18.6166 19.1288 18.5296 18.8836L17.9888 17.3574H18.6189C19.3804 17.3574 20 16.7379 20 15.9763V9.06388C20 8.30235 19.3804 7.68279 18.6189 7.68279Z" fill="#545454"/>
</svg>
