<?xml version="1.0" encoding="utf-8"?>
<!-- Generator: Adobe Illustrator 23.1.0, SVG Export Plug-In . SVG Version: 6.00 Build 0)  -->
<svg version="1.1" id="Layer_1" xmlns="http://www.w3.org/2000/svg" xmlns:xlink="http://www.w3.org/1999/xlink" x="0px" y="0px"
	 viewBox="0 0 85.3 101.2" style="enable-background:new 0 0 85.3 101.2;" xml:space="preserve">
<style type="text/css">
	.st0{fill:#FFFFFF;}
</style>
<g>
	<g>
		<path class="st0" d="M47.7,0c-6.1,5-21.6,21.5-31.6,34.9c-3.1,4.1-6.2,8-8.4,11.7c-1.6,2.7-3.2,5.6-4.2,7.8
			c-1.3,2.7-1.6,4.7-2,6.1C-1.7,71,0.2,82.4,6.7,91.1c2.3,3.1,5.1,5.9,8.5,8.1c5.5,3.7,14.5,2.1,14-7.2v-4.8c0-4.6-2-6.3-5.1-6.3
			h-0.6c-2.1,0-3.1-2.9-1.5-4.5l16.5-14.1c2.5-2.4,5.7-2.5,8.3,0l16.5,14.1c1.6,1.6,0.6,4.5-1.5,4.5h-0.6c-3,0-5.1,1.7-5.1,6.3
			c0,8.1,0,4.7,0.1,6.2c1,9.1,9.9,8.3,14,5.8c3.5-2.1,6.2-5.1,8.5-8.1c6.4-8.7,8.2-20,5.1-30.4c-1.5-5-5.5-11.8-12-17.9
			C64.7,36.3,54.4,33,47.1,33"/>
		<path class="st0" d="M47.7,93.2c0,1-0.8,1.8-1.8,1.8h-6.6c-1,0-1.8-0.8-1.8-1.8v-6.6c0-1,0.8-1.8,1.8-1.8H46c1,0,1.8,0.8,1.8,1.8
			V93.2z"/>
	</g>
</g>
</svg>
