<svg version="1.1" xmlns="http://www.w3.org/2000/svg" xmlns:xlink="http://www.w3.org/1999/xlink" x="0px" y="0px" width="85.33px"
	 height="101.15px" viewBox="0 0 85.33 101.15" style="enable-background:new 0 0 85.33 101.15;" xml:space="preserve">
<style type="text/css">
	.st0{fill:#2E3192;}
</style>
<defs>
</defs>
<g>
	<g>
		<path class="st0" d="M47.73,0c-6.12,4.96-21.61,21.49-31.6,34.92c-3.05,4.09-6.16,7.98-8.39,11.71c-1.63,2.72-3.2,5.6-4.25,7.79
			c-1.27,2.65-1.56,4.71-2,6.14c-3.15,10.43-1.27,21.82,5.18,30.59c2.28,3.09,5.12,5.86,8.52,8.14c5.54,3.73,14.45,2.11,14-7.16
			V87.3c0-4.58-2.02-6.31-5.07-6.31H23.5c-2.11,0-3.09-2.91-1.51-4.47L38.5,62.46c2.47-2.43,5.74-2.5,8.28,0l16.51,14.06
			c1.58,1.56,0.6,4.47-1.51,4.47h-0.62c-3.05,0-5.07,1.73-5.07,6.31c0,8.14-0.04,4.66,0.13,6.18c1.05,9.14,9.87,8.33,13.99,5.81
			c3.49-2.13,6.24-5.05,8.52-8.14c6.41-8.71,8.24-20.02,5.09-30.39c-1.51-4.97-5.46-11.79-12-17.87c-7.12-6.62-17.4-9.91-24.75-9.91
			"/>
		<path class="st0" d="M47.73,93.16c0,0.96-0.78,1.75-1.75,1.75h-6.64c-0.97,0-1.75-0.78-1.75-1.75v-6.64
			c0-0.97,0.78-1.75,1.75-1.75h6.64c0.97,0,1.75,0.78,1.75,1.75V93.16z"/>
	</g>
</g>
</svg>
