<?xml version="1.0" encoding="utf-8"?>
<!-- Generator: Adobe Illustrator 23.1.0, SVG Export Plug-In . SVG Version: 6.00 Build 0)  -->
<svg version="1.1" id="Layer_1" xmlns="http://www.w3.org/2000/svg" xmlns:xlink="http://www.w3.org/1999/xlink" x="0px" y="0px"
	 viewBox="0 0 180 54" style="enable-background:new 0 0 180 54;" xml:space="preserve">
<style type="text/css">
	.st0{fill:#FFFFFF;}
</style>
<g id="graphics">
	<g>
		<g>
			<g>
				<path class="st0" d="M21.6,4c-2.8,2.2-9.8,9.7-14.3,15.8c-1.4,1.9-2.8,3.6-3.8,5.3c-0.7,1.2-1.4,2.5-1.9,3.5
					c-0.6,1.2-0.7,2.1-0.9,2.8c-1.4,4.7-0.6,9.9,2.3,13.8c1,1.4,2.3,2.7,3.9,3.7c2.5,1.7,6.5,1,6.3-3.2v-2.2c0-2.1-0.9-2.9-2.3-2.9
					h-0.3c-1,0-1.4-1.3-0.7-2l7.5-6.4c1.1-1.1,2.6-1.1,3.7,0l7.5,6.4c0.7,0.7,0.3,2-0.7,2h-0.3c-1.4,0-2.3,0.8-2.3,2.9
					c0,3.7,0,2.1,0.1,2.8c0.5,4.1,4.5,3.8,6.3,2.6c1.6-1,2.8-2.3,3.9-3.7c2.9-3.9,3.7-9.1,2.3-13.8c-0.7-2.2-2.5-5.3-5.4-8.1
					c-3.2-3-7.9-4.5-11.2-4.5"/>
				<path class="st0" d="M21.6,46.2c0,0.4-0.4,0.8-0.8,0.8h-3c-0.4,0-0.8-0.4-0.8-0.8v-3c0-0.4,0.4-0.8,0.8-0.8h3
					c0.4,0,0.8,0.4,0.8,0.8V46.2z"/>
			</g>
		</g>
		<g>
			<path class="st0" d="M63.5,32.9v10.3h-5v-9.6c0-2.1-1.3-3.1-2.9-3.1c-1.8,0-3.1,1.1-3.1,3.5v9.2h-5V19.7h5V28
				c0.9-1.2,2.6-2,4.8-2C60.6,26,63.5,28.4,63.5,32.9z"/>
			<path class="st0" d="M75,26c-4.9,0-8.9,3.9-8.9,8.9s4,8.9,8.9,8.9s8.9-3.9,8.9-8.9S79.9,26,75,26z M75,38.8c-2.2,0-3.9-1.6-3.9-4
				s1.7-4,3.9-4s3.9,1.6,3.9,4S77.2,38.8,75,38.8z"/>
			<path class="st0" d="M111.9,32.9v10.3h-5v-9.9c0-1.7-0.8-2.8-2.4-2.8c-1.7,0-2.6,1.2-2.6,3.2v9.5h-5v-9.9c0-1.7-0.8-2.8-2.4-2.8
				c-1.7,0-2.6,1.2-2.6,3.2v9.5h-5V26.4h5V28c0.8-1.1,2.2-2,4.5-2c2,0,3.5,0.8,4.4,2.2c0.9-1.3,2.5-2.2,4.9-2.2
				C109.4,26,111.9,28.7,111.9,32.9z"/>
			<path class="st0" d="M132,34.8c0-5.1-3.6-8.9-8.5-8.9c-5.3,0-8.9,3.9-8.9,8.9s3.6,8.9,9.3,8.9c3.2,0,5.7-1.2,7.3-3.5l-4-2.3
				c-0.7,0.7-1.8,1.3-3.2,1.3c-1.8,0-3.4-0.6-4-2.3h11.9C131.9,36.2,132,35.5,132,34.8z M119.8,33.1c0.5-1.7,1.7-2.7,3.7-2.7
				c1.5,0,3,0.7,3.6,2.7H119.8z"/>
			<rect x="134.9" y="18.7" class="st0" width="5" height="24.5"/>
			<path class="st0" d="M143.1,21.9c0-1.6,1.4-3,3-3s3,1.4,3,3s-1.4,3-3,3C144.5,25,143.1,23.6,143.1,21.9z"/>
			<rect x="143.6" y="26.4" class="st0" width="5" height="16.8"/>
			<path class="st0" d="M158.4,26.4h3.1v4.8h-3.1v11.9h-5V31.3h-2.2v-4.8h2.2c0-4.7,2.6-7.5,8.2-7.2v4.8
				C159.7,23.9,158.4,24.5,158.4,26.4z"/>
			<path class="st0" d="M180,26.4l-5.7,16.3c-1.9,5.3-4.9,7.5-9.6,7.2v-4.7c2.3,0,3.5-0.7,4.2-2.8l-6.7-16h5.5l3.7,10.3l3.2-10.3
				C174.6,26.4,180,26.4,180,26.4z"/>
		</g>
	</g>
</g>
</svg>
