<?xml version="1.0" encoding="utf-8"?>
<!-- Generator: Adobe Illustrator 23.1.0, SVG Export Plug-In . SVG Version: 6.00 Build 0)  -->
<svg version="1.1" id="Layer_1" xmlns="http://www.w3.org/2000/svg" xmlns:xlink="http://www.w3.org/1999/xlink" x="0px" y="0px"
	 viewBox="0 0 301.3 308" style="enable-background:new 0 0 301.3 308;" xml:space="preserve">
<style type="text/css">
	.st0{opacity:0.5;fill:#2E3192;enable-background:new    ;}
	.st1{fill:#2E3192;}
	.st2{fill:#FFFFFF;}
</style>
<ellipse class="st0" cx="150.6" cy="154" rx="54.8" ry="56"/>
<ellipse class="st1" cx="150.6" cy="154" rx="48.9" ry="50"/>
<g>
	<g>
		<g>
			<path class="st2" d="M178.3,151.4l-8.7-8.7v-10c0-1.8-1.5-3.3-3.3-3.3c-1.8,0-3.3,1.5-3.3,3.3v3.4l-6.5-6.5
				c-3.1-3.1-8.7-3.1-11.9,0l-21.5,21.5c-1.2,1.2-1.2,3.3,0,4.7c1.2,1.2,3.3,1.2,4.7,0l21.5-21.5c0.8-0.8,2-0.8,2.7,0l21.6,21.6
				c0.6,0.6,1.5,1,2.3,1s1.7-0.4,2.3-1C179.5,154.7,179.5,152.6,178.3,151.4z"/>
			<path class="st2" d="M151.8,140.7c-0.6-0.6-1.6-0.6-2.3,0l-19,18.9c-0.2,0.2-0.5,0.8-0.5,1.1v13.8c0,3.3,2.7,5.9,5.9,5.9h9.4
				v-14.6h10.7v14.6h9.4c3.3,0,5.9-2.7,5.9-5.9v-13.8c0-0.4-0.2-0.8-0.5-1.1L151.8,140.7z"/>
		</g>
	</g>
</g>
</svg>
