<svg width="20" height="20" viewBox="0 0 20 20" fill="none" xmlns="http://www.w3.org/2000/svg">
<path d="M12 12.6667V11.3333C12.3 11.1847 13.158 10.1633 13.248 9.36534C13.484 9.34734 13.8547 9.13067 13.964 8.27534C14.0227 7.81601 13.7893 7.55801 13.648 7.47667C13.648 7.47667 14 6.80801 14 6.00067C14 4.38201 13.3647 3.00067 12 3.00067C12 3.00067 11.526 2.00067 10 2.00067C7.172 2.00067 6 3.81467 6 6.00067C6 6.73667 6.352 7.47667 6.352 7.47667C6.21067 7.55801 5.97733 7.81667 6.036 8.27534C6.14533 9.13067 6.516 9.34734 6.752 9.36534C6.842 10.1633 7.7 11.1847 8 11.3333V12.6667C7.33333 14.6667 2 13.3333 2 18H18C18 13.3333 12.6667 14.6667 12 12.6667Z" fill="#545454"/>
</svg>
