<?xml version="1.0" encoding="utf-8"?>
<!-- Generator: Adobe Illustrator 23.1.0, SVG Export Plug-In . SVG Version: 6.00 Build 0)  -->
<svg version="1.1" id="Layer_1" xmlns="http://www.w3.org/2000/svg" xmlns:xlink="http://www.w3.org/1999/xlink" x="0px" y="0px"
	 viewBox="0 0 301.3 308" style="enable-background:new 0 0 301.3 308;" xml:space="preserve">
<style type="text/css">
	.st0{fill:#2E3192;}
	.st1{fill:#FFFFFF;}
</style>
<ellipse class="st0" cx="150.6" cy="154" rx="150.6" ry="154"/>
<path class="st1" d="M137.3,73.6c-37,0-66.8,30.2-66.8,66.8c0,37,30.2,66.8,66.8,66.8c16,0,30.8-5.5,42.2-15.1l40,40
	c0.6,0.6,1.2,1.2,2.2,1.5s1.8,0.6,2.5,0.6c0.9,0,1.8-0.3,2.5-0.6c0.9-0.3,1.5-0.9,2.2-1.5c0.6-0.6,1.2-1.2,1.5-2.2s0.6-1.8,0.6-2.5
	c0-0.9-0.3-1.8-0.6-2.5c-0.3-0.9-0.9-1.5-1.5-2.2l-40-40c9.5-11.4,15.1-26.2,15.1-42.2C204.4,103.8,174.2,73.6,137.3,73.6z
	 M137.3,87.2c29.6,0,53.6,24,53.6,53.6c0,29.6-24,53.6-53.6,53.6c-29.6,0-53.6-24-53.6-53.6C84,110.9,107.7,87.2,137.3,87.2z"/>
</svg>
