<svg width="260" height="260" viewBox="0 0 260 260" fill="none" xmlns="http://www.w3.org/2000/svg">
<path d="M249.167 43.3333V65H216.667V97.5H195V65H162.5V43.3333H195V10.8333H216.667V43.3333H249.167ZM157.083 119.167C166.053 119.167 173.333 111.887 173.333 102.917C173.333 93.9467 166.053 86.6667 157.083 86.6667C148.113 86.6667 140.833 93.9467 140.833 102.917C140.833 111.887 148.113 119.167 157.083 119.167ZM195 154.202L189.443 148.027C180.841 138.439 165.826 138.439 157.203 148.027L150.107 155.935L97.5002 97.5L65.0002 133.607V65H140.833V43.3333H65.0002C53.0293 43.3333 43.3335 53.0292 43.3335 65V195C43.3335 206.971 53.0293 216.667 65.0002 216.667H195C206.971 216.667 216.667 206.971 216.667 195V119.167H195V154.202Z" fill="white"/>
</svg>
