<svg version="1.1" xmlns="http://www.w3.org/2000/svg" xmlns:xlink="http://www.w3.org/1999/xlink" x="0px" y="0px" width="15.75px"
	 height="18px" viewBox="0 0 15.75 18" style="enable-background:new 0 0 15.75 18;" xml:space="preserve">
<style type="text/css">
	.st0{fill:#545454;}
</style>
<defs>
</defs>
<g>
	<g>
		<g>
			<path class="st0" d="M14.06,18c0.93,0,1.69-0.76,1.69-1.69V3.94c0-0.93-0.76-1.69-1.69-1.69h-1.69V0.42
				c0-0.23-0.19-0.42-0.42-0.42h-1.41c-0.23,0-0.42,0.19-0.42,0.42v1.83h-4.5V0.42C5.62,0.19,5.43,0,5.2,0H3.8
				C3.57,0,3.38,0.19,3.38,0.42v1.83H1.69C0.76,2.25,0,3.01,0,3.94v12.38C0,17.24,0.76,18,1.69,18H14.06z M13.85,16.31H1.9
				c-0.12,0-0.21-0.09-0.21-0.21V5.62h12.37V16.1C14.06,16.22,13.97,16.31,13.85,16.31L13.85,16.31z M5.2,10.12
				c0.23,0,0.42-0.19,0.42-0.42V8.3c0-0.23-0.19-0.42-0.42-0.42H3.8c-0.23,0-0.42,0.19-0.42,0.42V9.7c0,0.23,0.19,0.42,0.42,0.42
				H5.2z M8.58,10.12C8.81,10.12,9,9.93,9,9.7V8.3c0-0.23-0.19-0.42-0.42-0.42H7.17c-0.23,0-0.42,0.19-0.42,0.42V9.7
				c0,0.23,0.19,0.42,0.42,0.42H8.58z M11.95,10.12c0.23,0,0.42-0.19,0.42-0.42V8.3c0-0.23-0.19-0.42-0.42-0.42h-1.41
				c-0.23,0-0.42,0.19-0.42,0.42V9.7c0,0.23,0.19,0.42,0.42,0.42H11.95z M8.58,13.5C8.81,13.5,9,13.31,9,13.08v-1.41
				c0-0.23-0.19-0.42-0.42-0.42H7.17c-0.23,0-0.42,0.19-0.42,0.42v1.41c0,0.23,0.19,0.42,0.42,0.42H8.58z M5.2,13.5
				c0.23,0,0.42-0.19,0.42-0.42v-1.41c0-0.23-0.19-0.42-0.42-0.42H3.8c-0.23,0-0.42,0.19-0.42,0.42v1.41c0,0.23,0.19,0.42,0.42,0.42
				H5.2z M11.95,13.5c0.23,0,0.42-0.19,0.42-0.42v-1.41c0-0.23-0.19-0.42-0.42-0.42h-1.41c-0.23,0-0.42,0.19-0.42,0.42v1.41
				c0,0.23,0.19,0.42,0.42,0.42H11.95z"/>
		</g>
	</g>
</g>
</svg>
